<svg width="20" height="20"  fill="none"  viewBox="0 0 24 24" xmlns="http://www.w3.org/2000/svg">
<symbol id="check">
    <path fill="currentColor" d="M12,2c-5.514,0 -10,4.486 -10,10c0,5.514 4.486,10 10,10c5.514,0 10,-4.486 10,-10c0,-1.126 -0.19602,-2.2058 -0.54102,-3.2168l-1.61914,1.61914c0.105,0.516 0.16016,1.05066 0.16016,1.59766c0,4.411 -3.589,8 -8,8c-4.411,0 -8,-3.589 -8,-8c0,-4.411 3.589,-8 8,-8c1.633,0 3.15192,0.49389 4.41992,1.33789l1.43164,-1.43164c-1.648,-1.194 -3.66656,-1.90625 -5.85156,-1.90625zM21.29297,3.29297l-10.29297,10.29297l-3.29297,-3.29297l-1.41406,1.41406l4.70703,4.70703l11.70703,-11.70703z"/>
</symbol>

<symbol id="edit">
 <path fill="currentColor" d="M0 14.25V18H3.75L14.81 6.94L11.06 3.19L0 14.25ZM17.71 4.04C18.1 3.65 18.1 3.02 17.71 2.63L15.37 0.29C14.98 -0.1 14.35 -0.1 13.96 0.29L12.13 2.12L16.88 6.87L17.71 4.04Z"/> 
</symbol>

<symbol id="delete">
 <path fill="currentColor" d="M1 16C1 17.1 1.9 18 3 18H11C12.1 18 13 17.1 13 16V4H1V16ZM14 1H10.5L9.5 0H4 .5L3.5 1H0V3H14V1Z"/>
</symbol>
</svg>

